<svg xmlns="http://www.w3.org/2000/svg" width="78.8" height="56" viewBox="0 0 78.8 56">
  <g id="find-hospital" transform="translate(-28.2 -140.1)">
    <g id="Group_624">
      <path id="Path_831" d="M71,193h29.5V160.2H80.7V140.1H54.4v20.1H34.5V193Zm21.4-25.9H96v3.7H92.4Zm0,7.6H96v3.7H92.4Zm0,7.7H96v3.7H92.4Zm-8.1-15.3h3.6v3.7H84.3Zm0,7.6h3.6v3.7H84.3Zm0,7.7h3.6v3.7H84.3Zm-41.6,3.7H39.1v-3.7h3.6Zm0-7.7H39.1v-3.7h3.6Zm0-7.7H39.1V167h3.6Zm8.1,15.4H47.2v-3.7h3.6Zm0-7.7H47.2v-3.7h3.6Zm0-7.7H47.2V167h3.6Zm10.3-21.9h4.7V144h3.4v4.8H74v3.5H69.3v4.8H65.9v-4.8H61.2v-3.5Z" fill="#fff"/>
      <path id="Path_833" d="M28.2,195.1H107v1H28.2Z" fill="#fff"/>
    </g>
    <path id="Path_843" d="M71.5,162.5H60v20.1h5.4l12.5-13.8Zm-4.1,7H65.6v1.8H64v-1.8H62.2v-1.6H64v-1.8h1.6v1.8h1.8Zm8.8,12.2.9-3.1h1.2V170L66.1,183.4v5.9l6.1-6.7H75a1.033,1.033,0,0,0,1.2-.9Zm.7-7.3-.9.9-.9-.9Z" fill="#007d9e"/>
  </g>
</svg>
